<?xml version="1.0" standalone="no"?>
<svg xmlns="http://www.w3.org/2000/svg" viewBox="0 0 126.722 36" width="126.722" height="36"><g fill="#1d2a48" color="#1d2a48" transform="translate(0 6) scale(0.4705883)"><svg width="44.0" height="51.0" x="0.0" y="0.0" viewBox="0 0 44 51"><path fill="currentColor" fill-rule="evenodd" d="M21.998 0L0 12.571v25.143l4.19 2.395V15.002L21.999 4.827 39.81 15.002v20.28L21.998 45.459l-9.427-5.388V19.865l9.427-5.386 9.43 5.386v10.553l-9.43 5.387-1.045-.597V24.73l5.268-3.012-4.223-2.413-5.236 2.994v15.34l5.236 2.993 13.62-7.784V17.435l-13.62-7.781-13.617 7.78v25.068l13.617 7.784L44 37.714V12.571z"></path></svg></g><path fill="#1d2a48" fill-rule="nonzero" d="M6.05 16.97L3.34 16.97Q3.24 16.97 3.24 16.85L3.24 16.85L3.24 3.17L0.12 3.17Q0 3.17 0 3.05L0 3.05L0.02 0.36Q0.02 0.26 0.12 0.26L0.12 0.26L9.24 0.26Q9.36 0.26 9.36 0.36L9.36 0.36L9.36 3.05Q9.36 3.17 9.26 3.17L9.26 3.17L6.12 3.17L6.14 16.85Q6.14 16.97 6.05 16.97L6.05 16.97ZM18.38 16.97L10.63 16.97Q10.54 16.97 10.54 16.85L10.54 16.85L10.56 0.36Q10.56 0.26 10.66 0.26L10.66 0.26L18.36 0.26Q18.46 0.26 18.46 0.38L18.46 0.38L18.46 3.07Q18.46 3.17 18.36 3.17L18.36 3.17L13.44 3.17L13.44 6.91L18.36 6.91Q18.46 6.91 18.46 7.01L18.46 7.01L18.48 9.72Q18.48 9.82 18.38 9.82L18.38 9.82L13.44 9.82L13.44 14.02L18.38 14.02Q18.48 14.02 18.48 14.14L18.48 14.14L18.48 16.87Q18.48 16.97 18.38 16.97L18.38 16.97ZM19.56 16.85L19.56 16.85L22.54 0.36Q22.56 0.26 22.66 0.26L22.66 0.26L26.14 0.26Q26.23 0.26 26.26 0.36L26.26 0.36L29.11 16.85Q29.14 16.97 29.02 16.97L29.02 16.97L26.35 16.97Q26.26 16.97 26.23 16.85L26.23 16.85L25.97 15.10L22.70 15.10L22.44 16.85Q22.42 16.97 22.32 16.97L22.32 16.97L19.66 16.97Q19.56 16.97 19.56 16.85ZM24.26 5.78L23.18 12.53L25.49 12.53L24.50 5.78L24.36 4.90L24.26 5.78ZM33.43 16.97L30.72 16.97Q30.62 16.97 30.62 16.85L30.62 16.85L30.67 0.36Q30.67 0.26 30.77 0.26L30.77 0.26L33.70 0.26Q33.79 0.26 33.86 0.36L33.86 0.36L36.05 3.53L38.23 0.36Q38.30 0.26 38.40 0.26L38.40 0.26L41.35 0.26Q41.45 0.26 41.45 0.36L41.45 0.36L41.50 16.85Q41.50 16.97 41.40 16.97L41.40 16.97L38.69 16.97Q38.59 16.97 38.59 16.85L38.59 16.85L38.57 4.61L36.05 8.26L33.55 4.61L33.53 16.85Q33.53 16.97 33.43 16.97L33.43 16.97ZM52.66 16.97L49.75 16.97Q49.66 16.97 49.63 16.85L49.63 16.85L46.32 0.36Q46.30 0.26 46.42 0.26L46.42 0.26L49.13 0.26Q49.22 0.26 49.25 0.36L49.25 0.36L51.22 11.35L53.14 0.36Q53.16 0.26 53.26 0.26L53.26 0.26L55.94 0.26Q56.06 0.26 56.04 0.36L56.04 0.36L52.78 16.85Q52.75 16.97 52.66 16.97L52.66 16.97ZM60.29 16.97L57.58 16.97Q57.46 16.97 57.46 16.85L57.46 16.85L57.48 0.36Q57.48 0.26 57.58 0.26L57.58 0.26L60.26 0.26Q60.36 0.26 60.36 0.36L60.36 0.36L60.38 16.85Q60.38 16.97 60.29 16.97L60.29 16.97ZM66.58 17.21L66.58 17.21Q65.28 17.21 64.21 16.55Q63.14 15.89 62.51 14.80Q61.87 13.70 61.87 12.38L61.87 12.38L61.87 11.28Q61.87 11.16 61.99 11.16L61.99 11.16L64.68 11.16Q64.78 11.16 64.78 11.28L64.78 11.28L64.78 12.38Q64.78 13.18 65.30 13.74Q65.83 14.30 66.58 14.30L66.58 14.30Q67.32 14.30 67.85 13.73Q68.38 13.15 68.38 12.38L68.38 12.38Q68.38 11.50 67.22 10.85L67.22 10.85Q66.84 10.63 66.02 10.18Q65.21 9.72 64.49 9.31L64.49 9.31Q63.17 8.54 62.53 7.38Q61.90 6.22 61.90 4.75L61.90 4.75Q61.90 3.41 62.54 2.34Q63.19 1.27 64.26 0.65Q65.33 0.02 66.58 0.02L66.58 0.02Q67.85 0.02 68.92 0.66Q69.98 1.30 70.62 2.36Q71.26 3.43 71.26 4.75L71.26 4.75L71.26 6.72Q71.26 6.82 71.16 6.82L71.16 6.82L68.47 6.82Q68.38 6.82 68.38 6.72L68.38 6.72L68.35 4.75Q68.35 3.91 67.82 3.38Q67.30 2.86 66.58 2.86L66.58 2.86Q65.83 2.86 65.30 3.42Q64.78 3.98 64.78 4.75L64.78 4.75Q64.78 5.54 65.11 6.07Q65.45 6.60 66.34 7.08L66.34 7.08Q66.46 7.15 66.80 7.33Q67.15 7.51 67.56 7.74Q67.97 7.97 68.29 8.14Q68.62 8.30 68.69 8.35L68.69 8.35Q69.89 9.02 70.58 10.00Q71.28 10.97 71.28 12.38L71.28 12.38Q71.28 13.75 70.64 14.84Q70.01 15.94 68.94 16.57Q67.87 17.21 66.58 17.21ZM75.79 16.97L73.08 16.97Q72.96 16.97 72.96 16.85L72.96 16.85L72.98 0.36Q72.98 0.26 73.08 0.26L73.08 0.26L75.77 0.26Q75.86 0.26 75.86 0.36L75.86 0.36L75.89 16.85Q75.89 16.97 75.79 16.97L75.79 16.97ZM82.44 17.21L82.44 17.21Q81.14 17.21 80.08 16.55Q79.01 15.89 78.36 14.80Q77.71 13.70 77.71 12.38L77.71 12.38L77.74 4.78Q77.74 3.46 78.37 2.38Q79.01 1.30 80.09 0.65Q81.17 0 82.44 0L82.44 0Q83.74 0 84.79 0.65Q85.85 1.30 86.48 2.38Q87.12 3.46 87.12 4.78L87.12 4.78L87.14 12.38Q87.14 13.70 86.51 14.80Q85.87 15.89 84.80 16.55Q83.74 17.21 82.44 17.21ZM82.44 14.30L82.44 14.30Q83.16 14.30 83.70 13.72Q84.24 13.13 84.24 12.38L84.24 12.38L84.22 4.78Q84.22 3.98 83.71 3.43Q83.21 2.88 82.44 2.88L82.44 2.88Q81.70 2.88 81.17 3.42Q80.64 3.96 80.64 4.78L80.64 4.78L80.64 12.38Q80.64 13.18 81.17 13.74Q81.70 14.30 82.44 14.30ZM91.58 16.97L89.18 16.97Q88.99 16.97 88.99 16.80L88.99 16.80L88.97 0.46Q88.97 0.26 89.16 0.26L89.16 0.26L91.32 0.26L95.38 9.72L95.26 0.46Q95.26 0.26 95.47 0.26L95.47 0.26L97.85 0.26Q97.99 0.26 97.99 0.46L97.99 0.46L98.02 16.82Q98.02 16.97 97.90 16.97L97.90 16.97L95.78 16.97L91.63 8.14L91.80 16.78Q91.80 16.97 91.58 16.97L91.58 16.97Z" transform="translate(28.706, 9.516)"></path></svg>